<mxfile host="app.diagrams.net" modified="2023-03-27T02:35:42.473Z" agent="5.0 (Windows)" etag="ctzDIu1E0aOuourslYku" version="20.5.0" type="github">
  <diagram name="Page-1" id="74e2e168-ea6b-b213-b513-2b3c1d86103e">
    <mxGraphModel dx="813" dy="451" grid="1" gridSize="10" guides="1" tooltips="1" connect="1" arrows="1" fold="1" page="1" pageScale="1" pageWidth="1100" pageHeight="850" background="none" math="0" shadow="0">
      <root>
        <mxCell id="0" />
        <mxCell id="1" parent="0" />
        <mxCell id="77e6c97f196da883-1" value="网关业务流程" style="swimlane;html=1;childLayout=stackLayout;startSize=20;rounded=0;shadow=0;labelBackgroundColor=none;strokeWidth=1;fontFamily=Verdana;fontSize=8;align=center;" parent="1" vertex="1">
          <mxGeometry x="70" y="40" width="480" height="470" as="geometry" />
        </mxCell>
        <mxCell id="77e6c97f196da883-2" value="客户端" style="swimlane;html=1;startSize=20;" parent="77e6c97f196da883-1" vertex="1">
          <mxGeometry y="20" width="160" height="450" as="geometry" />
        </mxCell>
        <mxCell id="77e6c97f196da883-8" value="发起请求" style="rounded=1;whiteSpace=wrap;html=1;shadow=0;labelBackgroundColor=none;strokeWidth=1;fontFamily=Verdana;fontSize=8;align=center;" parent="77e6c97f196da883-2" vertex="1">
          <mxGeometry x="20" y="65" width="100" height="60" as="geometry" />
        </mxCell>
        <mxCell id="eiWwuf0W8dYyPeCdL2YL-18" value="报错或让用户重新登录" style="whiteSpace=wrap;html=1;fontSize=8;fontFamily=Verdana;rounded=1;shadow=0;labelBackgroundColor=none;strokeWidth=1;" vertex="1" parent="77e6c97f196da883-2">
          <mxGeometry x="10" y="220" width="120" height="60" as="geometry" />
        </mxCell>
        <mxCell id="eiWwuf0W8dYyPeCdL2YL-26" value="异常提示" style="whiteSpace=wrap;html=1;rounded=1;" vertex="1" parent="77e6c97f196da883-2">
          <mxGeometry x="10" y="305" width="120" height="60" as="geometry" />
        </mxCell>
        <mxCell id="77e6c97f196da883-26" style="edgeStyle=orthogonalEdgeStyle;rounded=1;html=1;labelBackgroundColor=none;startArrow=none;startFill=0;startSize=5;endArrow=classicThin;endFill=1;endSize=5;jettySize=auto;orthogonalLoop=1;strokeWidth=1;fontFamily=Verdana;fontSize=8" parent="77e6c97f196da883-1" source="77e6c97f196da883-8" target="77e6c97f196da883-11" edge="1">
          <mxGeometry relative="1" as="geometry" />
        </mxCell>
        <mxCell id="77e6c97f196da883-3" value="网关" style="swimlane;html=1;startSize=20;" parent="77e6c97f196da883-1" vertex="1">
          <mxGeometry x="160" y="20" width="160" height="450" as="geometry" />
        </mxCell>
        <mxCell id="eiWwuf0W8dYyPeCdL2YL-23" style="edgeStyle=orthogonalEdgeStyle;rounded=0;orthogonalLoop=1;jettySize=auto;html=1;exitX=0.5;exitY=1;exitDx=0;exitDy=0;" edge="1" parent="77e6c97f196da883-3" source="77e6c97f196da883-11" target="eiWwuf0W8dYyPeCdL2YL-9">
          <mxGeometry relative="1" as="geometry" />
        </mxCell>
        <mxCell id="77e6c97f196da883-11" value="" style="rounded=1;whiteSpace=wrap;html=1;shadow=0;labelBackgroundColor=none;strokeWidth=1;fontFamily=Verdana;fontSize=8;align=center;" parent="77e6c97f196da883-3" vertex="1">
          <mxGeometry x="30" y="30" width="100" height="290" as="geometry" />
        </mxCell>
        <mxCell id="eiWwuf0W8dYyPeCdL2YL-11" style="edgeStyle=orthogonalEdgeStyle;rounded=0;orthogonalLoop=1;jettySize=auto;html=1;exitX=0.5;exitY=1;exitDx=0;exitDy=0;entryX=0.5;entryY=0;entryDx=0;entryDy=0;" edge="1" parent="77e6c97f196da883-3" source="eiWwuf0W8dYyPeCdL2YL-3" target="eiWwuf0W8dYyPeCdL2YL-6">
          <mxGeometry relative="1" as="geometry" />
        </mxCell>
        <mxCell id="eiWwuf0W8dYyPeCdL2YL-3" value="黑名单验证" style="whiteSpace=wrap;html=1;rounded=1;" vertex="1" parent="77e6c97f196da883-3">
          <mxGeometry x="35" y="80" width="90" height="30" as="geometry" />
        </mxCell>
        <mxCell id="eiWwuf0W8dYyPeCdL2YL-13" style="edgeStyle=orthogonalEdgeStyle;rounded=0;orthogonalLoop=1;jettySize=auto;html=1;exitX=0.5;exitY=1;exitDx=0;exitDy=0;entryX=0.5;entryY=0;entryDx=0;entryDy=0;" edge="1" parent="77e6c97f196da883-3" source="eiWwuf0W8dYyPeCdL2YL-6" target="eiWwuf0W8dYyPeCdL2YL-5">
          <mxGeometry relative="1" as="geometry" />
        </mxCell>
        <mxCell id="eiWwuf0W8dYyPeCdL2YL-6" value="请求缓存" style="whiteSpace=wrap;html=1;rounded=1;" vertex="1" parent="77e6c97f196da883-3">
          <mxGeometry x="35" y="130" width="90" height="30" as="geometry" />
        </mxCell>
        <mxCell id="eiWwuf0W8dYyPeCdL2YL-14" style="edgeStyle=orthogonalEdgeStyle;rounded=0;orthogonalLoop=1;jettySize=auto;html=1;exitX=0.5;exitY=1;exitDx=0;exitDy=0;entryX=0.5;entryY=0;entryDx=0;entryDy=0;" edge="1" parent="77e6c97f196da883-3" source="eiWwuf0W8dYyPeCdL2YL-5" target="eiWwuf0W8dYyPeCdL2YL-7">
          <mxGeometry relative="1" as="geometry" />
        </mxCell>
        <mxCell id="eiWwuf0W8dYyPeCdL2YL-5" value="日志记录" style="whiteSpace=wrap;html=1;rounded=1;" vertex="1" parent="77e6c97f196da883-3">
          <mxGeometry x="35" y="180" width="90" height="30" as="geometry" />
        </mxCell>
        <mxCell id="eiWwuf0W8dYyPeCdL2YL-9" value="负载均衡" style="whiteSpace=wrap;html=1;rounded=1;" vertex="1" parent="77e6c97f196da883-3">
          <mxGeometry x="35" y="390" width="90" height="30" as="geometry" />
        </mxCell>
        <mxCell id="eiWwuf0W8dYyPeCdL2YL-8" value="登录验证" style="whiteSpace=wrap;html=1;rounded=1;" vertex="1" parent="77e6c97f196da883-3">
          <mxGeometry x="35" y="280" width="90" height="30" as="geometry" />
        </mxCell>
        <mxCell id="eiWwuf0W8dYyPeCdL2YL-15" style="edgeStyle=orthogonalEdgeStyle;rounded=0;orthogonalLoop=1;jettySize=auto;html=1;exitX=0.5;exitY=1;exitDx=0;exitDy=0;entryX=0.5;entryY=0;entryDx=0;entryDy=0;" edge="1" parent="77e6c97f196da883-3" source="eiWwuf0W8dYyPeCdL2YL-7" target="eiWwuf0W8dYyPeCdL2YL-8">
          <mxGeometry relative="1" as="geometry" />
        </mxCell>
        <mxCell id="eiWwuf0W8dYyPeCdL2YL-7" value="XSS拦截" style="whiteSpace=wrap;html=1;rounded=1;" vertex="1" parent="77e6c97f196da883-3">
          <mxGeometry x="35" y="230" width="90" height="30" as="geometry" />
        </mxCell>
        <mxCell id="eiWwuf0W8dYyPeCdL2YL-17" value="拦截过滤正常？" style="whiteSpace=wrap;html=1;rounded=1;" vertex="1" parent="77e6c97f196da883-3">
          <mxGeometry x="35" y="40" width="90" height="30" as="geometry" />
        </mxCell>
        <mxCell id="77e6c97f196da883-4" value="应用服务" style="swimlane;html=1;startSize=20;" parent="77e6c97f196da883-1" vertex="1">
          <mxGeometry x="320" y="20" width="160" height="450" as="geometry" />
        </mxCell>
        <mxCell id="eiWwuf0W8dYyPeCdL2YL-24" value="服务对应实例" style="whiteSpace=wrap;html=1;rounded=1;" vertex="1" parent="77e6c97f196da883-4">
          <mxGeometry x="20" y="165" width="120" height="145" as="geometry" />
        </mxCell>
        <mxCell id="eiWwuf0W8dYyPeCdL2YL-19" value="" style="edgeStyle=orthogonalEdgeStyle;rounded=0;orthogonalLoop=1;jettySize=auto;html=1;" edge="1" parent="77e6c97f196da883-1" source="77e6c97f196da883-11" target="eiWwuf0W8dYyPeCdL2YL-18">
          <mxGeometry relative="1" as="geometry">
            <Array as="points">
              <mxPoint x="155" y="230" />
              <mxPoint x="155" y="270" />
            </Array>
          </mxGeometry>
        </mxCell>
        <mxCell id="eiWwuf0W8dYyPeCdL2YL-20" value="失败" style="edgeLabel;html=1;align=center;verticalAlign=middle;resizable=0;points=[];" vertex="1" connectable="0" parent="eiWwuf0W8dYyPeCdL2YL-19">
          <mxGeometry x="-0.1122" y="-2" relative="1" as="geometry">
            <mxPoint as="offset" />
          </mxGeometry>
        </mxCell>
        <mxCell id="eiWwuf0W8dYyPeCdL2YL-27" value="" style="edgeStyle=orthogonalEdgeStyle;rounded=0;orthogonalLoop=1;jettySize=auto;html=1;" edge="1" parent="77e6c97f196da883-1" source="eiWwuf0W8dYyPeCdL2YL-9" target="eiWwuf0W8dYyPeCdL2YL-26">
          <mxGeometry relative="1" as="geometry" />
        </mxCell>
        <mxCell id="eiWwuf0W8dYyPeCdL2YL-28" value="未找到实例" style="edgeLabel;html=1;align=center;verticalAlign=middle;resizable=0;points=[];" vertex="1" connectable="0" parent="eiWwuf0W8dYyPeCdL2YL-27">
          <mxGeometry x="-0.2623" relative="1" as="geometry">
            <mxPoint as="offset" />
          </mxGeometry>
        </mxCell>
        <mxCell id="eiWwuf0W8dYyPeCdL2YL-25" value="找到实例" style="edgeStyle=orthogonalEdgeStyle;rounded=0;orthogonalLoop=1;jettySize=auto;html=1;" edge="1" parent="77e6c97f196da883-1" source="eiWwuf0W8dYyPeCdL2YL-9" target="eiWwuf0W8dYyPeCdL2YL-24">
          <mxGeometry relative="1" as="geometry">
            <Array as="points">
              <mxPoint x="310" y="425" />
              <mxPoint x="310" y="260" />
            </Array>
          </mxGeometry>
        </mxCell>
      </root>
    </mxGraphModel>
  </diagram>
</mxfile>
